<svg width="218" height="99" viewBox="0 0 218 99" fill="none" xmlns="http://www.w3.org/2000/svg">
<path d="M208.512 79.867C208.686 80.2303 208.864 80.59 209.047 80.9463C210.62 84.0174 212.499 86.8273 214.682 89.3761L214.615 87.5087C212.445 90.4451 210.603 93.6241 209.089 97.0459C208.928 97.4107 208.77 97.7783 208.616 98.1486C208.925 97.8928 209.23 97.6343 209.532 97.373C212.359 94.9219 214.857 92.2282 217.028 89.2918L217.738 88.3314L216.961 87.4244C214.777 84.8756 212.289 82.5881 209.496 80.5616C209.172 80.3266 208.844 80.095 208.512 79.867Z" fill="white"/>
<path d="M3.15776 0.0462708C2.38592 0.68209 1.61408 1.31791 0.842243 1.95373C1.63832 1.34734 2.04835 1.05869 2.07253 1.08802C4.65714 4.2232 7.05103 7.22658 9.58324 10.3999C17.9586 20.9045 26.3652 31.5493 36.4498 40.637C79.8584 83.1852 143.956 92.5721 201.962 90.3711C206.047 90.2798 209.935 90.1577 214.05 89.9992C214.017 88.9997 213.983 88.0003 213.95 87.0008C209.848 87.1163 205.975 87.1967 201.908 87.2479C143.914 88.7946 81.7237 79.3491 39.1266 37.6646C29.2308 28.7492 19.1899 19.8535 9.98447 10.0527C7.21192 7.09369 4.65716 4.22324 2.07253 1.08802C2.04835 1.05869 2.41003 0.71136 3.15776 0.0462708Z" fill="white"/>
</svg>
