<svg width="288" height="108" viewBox="0 0 288 108" fill="none" xmlns="http://www.w3.org/2000/svg">
<path d="M3.25666 1.1737C2.49795 1.82513 1.73923 2.47655 0.980516 3.12797C1.93278 2.70197 2.50355 2.59722 2.70141 2.82367C7.74694 8.57357 13.176 14.0402 18.8298 19.2128C27.4814 27.1003 36.836 34.3586 47.0785 40.1777C69.9277 53.1773 96.5251 61.3784 123.145 58.442L122.544 58.3852C135.738 59.6381 147.681 56.255 158.423 49.2226C166.837 42.7366 167.04 31.1146 164.496 22.0907L164.363 21.7926C158.137 12.2393 149.694 2.55999 137.255 0.991905C131.001 0.438951 124.279 0.638277 118.326 3.74337C112.309 6.81026 108.525 12.9 106.648 18.9555L106.581 19.5302C108.543 56.1304 147.782 70.8984 177.549 79.0372C204.592 86.1183 231.816 92.4328 259.442 97.0897C267.337 98.3469 275.219 99.5887 283.351 99.8483C283.371 98.8485 283.391 97.8487 283.411 96.8489C275.644 96.605 267.747 95.3783 259.927 94.1292C232.469 89.5014 205.271 83.1958 178.316 76.1369C148.669 68.0944 111.135 53.4467 109.572 19.2971L109.504 19.8718C112.4 7.69709 124.995 2.15414 136.981 3.97931C147.58 5.17608 155.995 14.3137 161.774 23.3079L161.641 23.0098C163.971 31.2286 163.553 41.6421 156.587 46.85C147.3 53.1839 134.163 56.5637 123.422 55.5163L122.821 55.4595C97.0209 58.3115 71.0328 50.3568 48.5592 37.5686C38.5046 31.8559 28.6756 25.612 19.5014 18.4199C13.5147 13.7109 7.75008 8.5774 2.70141 2.82367C2.50356 2.59725 2.68577 2.04389 3.25666 1.1737Z" fill="white"/>
<path d="M276.329 106.243C276.549 105.905 276.772 105.572 276.999 105.242C278.957 102.401 281.183 99.8574 283.678 97.6127L283.37 99.4557C281.598 96.2631 280.183 92.8723 279.125 89.2834C279.012 88.9007 278.904 88.5158 278.799 88.1287C279.072 88.4223 279.341 88.7182 279.606 89.0164C282.092 91.8127 284.221 94.8072 285.993 97.9999L286.573 99.0441L285.685 99.8429C283.19 102.088 280.427 104.034 277.395 105.682C277.043 105.873 276.688 106.06 276.329 106.243Z" fill="white"/>
</svg>
