<svg width="161" height="139" viewBox="0 0 161 139" fill="none" xmlns="http://www.w3.org/2000/svg">
<path d="M12.5636 136.668C12.3035 136.361 12.0404 136.057 11.7742 135.758C9.47919 133.181 6.95475 130.934 4.20086 129.016L4.73519 130.806C6.09779 127.419 7.0816 123.879 7.6866 120.186C7.7511 119.793 7.8113 119.397 7.86719 119C7.63253 119.325 7.40217 119.652 7.17612 119.981C5.05591 123.064 3.3145 126.299 1.9519 129.687L1.50623 130.795L2.48623 131.477C5.24012 133.396 8.22347 134.984 11.4363 136.244C11.8089 136.39 12.1847 136.531 12.5636 136.668Z" fill="white"/>
<path d="M160.03 3.40306C159.677 2.46769 159.323 1.53231 158.97 0.596938C159.323 1.53241 159.463 2.01387 159.391 2.04121C152.485 4.66405 145.683 7.17481 138.777 9.69563C120.605 16.3359 102.396 22.7925 84.5611 30.2986C62.1163 41.1459 37.4267 46.0522 18.5265 66.2807C62.2799 71.8067 103.471 47.4985 141.686 49.7229C110.174 77.2779 63.5455 97.6409 23.0549 119.238C16.5122 122.562 9.75208 125.97 3.33477 129.156C3.77826 130.052 4.22174 130.948 4.66523 131.844C11.1026 128.649 17.863 125.241 24.4141 121.912C65.2483 98.9898 110.61 84.2587 144.314 48.2771C100.51 43.6833 58.8005 66.7259 21.4735 65.7193C37.2538 52.2037 63.7568 42.8636 85.7257 33.0633C103.523 25.5733 121.124 17.6596 138.979 10.2122C145.764 7.38615 152.485 4.66409 159.391 2.04121C159.463 2.01387 159.677 2.46759 160.03 3.40306Z" fill="white"/>
</svg>
