<svg width="25" height="25" viewBox="0 0 25 25" fill="none" xmlns="http://www.w3.org/2000/svg">
<path d="M5.32667 10.8867C7.24667 14.66 10.34 17.74 14.1133 19.6733L17.0467 16.74C17.4067 16.38 17.94 16.26 18.4067 16.42C19.9 16.9133 21.5133 17.18 23.1667 17.18C23.9 17.18 24.5 17.78 24.5 18.5133V23.1667C24.5 23.9 23.9 24.5 23.1667 24.5C10.6467 24.5 0.5 14.3533 0.5 1.83333C0.5 1.1 1.1 0.5 1.83333 0.5H6.5C7.23333 0.5 7.83333 1.1 7.83333 1.83333C7.83333 3.5 8.1 5.1 8.59333 6.59333C8.74 7.06 8.63333 7.58 8.26 7.95333L5.32667 10.8867Z" fill="white"/>
</svg>
