<svg width="25" height="25" viewBox="0 0 25 25" fill="none" xmlns="http://www.w3.org/2000/svg">
<path d="M14.9 7.7H16.1C16.4183 7.7 16.7235 7.57357 16.9485 7.34853C17.1736 7.12348 17.3 6.81826 17.3 6.5C17.3 6.18174 17.1736 5.87652 16.9485 5.65147C16.7235 5.42643 16.4183 5.3 16.1 5.3H14.9C14.5817 5.3 14.2765 5.42643 14.0515 5.65147C13.8264 5.87652 13.7 6.18174 13.7 6.5C13.7 6.81826 13.8264 7.12348 14.0515 7.34853C14.2765 7.57357 14.5817 7.7 14.9 7.7ZM14.9 12.5H16.1C16.4183 12.5 16.7235 12.3736 16.9485 12.1485C17.1736 11.9235 17.3 11.6183 17.3 11.3C17.3 10.9817 17.1736 10.6765 16.9485 10.4515C16.7235 10.2264 16.4183 10.1 16.1 10.1H14.9C14.5817 10.1 14.2765 10.2264 14.0515 10.4515C13.8264 10.6765 13.7 10.9817 13.7 11.3C13.7 11.6183 13.8264 11.9235 14.0515 12.1485C14.2765 12.3736 14.5817 12.5 14.9 12.5ZM8.9 7.7H10.1C10.4183 7.7 10.7235 7.57357 10.9485 7.34853C11.1736 7.12348 11.3 6.81826 11.3 6.5C11.3 6.18174 11.1736 5.87652 10.9485 5.65147C10.7235 5.42643 10.4183 5.3 10.1 5.3H8.9C8.58174 5.3 8.27652 5.42643 8.05147 5.65147C7.82643 5.87652 7.7 6.18174 7.7 6.5C7.7 6.81826 7.82643 7.12348 8.05147 7.34853C8.27652 7.57357 8.58174 7.7 8.9 7.7ZM8.9 12.5H10.1C10.4183 12.5 10.7235 12.3736 10.9485 12.1485C11.1736 11.9235 11.3 11.6183 11.3 11.3C11.3 10.9817 11.1736 10.6765 10.9485 10.4515C10.7235 10.2264 10.4183 10.1 10.1 10.1H8.9C8.58174 10.1 8.27652 10.2264 8.05147 10.4515C7.82643 10.6765 7.7 10.9817 7.7 11.3C7.7 11.6183 7.82643 11.9235 8.05147 12.1485C8.27652 12.3736 8.58174 12.5 8.9 12.5ZM23.3 22.1H22.1V1.7C22.1 1.38174 21.9736 1.07652 21.7485 0.851472C21.5235 0.626428 21.2183 0.5 20.9 0.5H4.1C3.78174 0.5 3.47652 0.626428 3.25147 0.851472C3.02643 1.07652 2.9 1.38174 2.9 1.7V22.1H1.7C1.38174 22.1 1.07652 22.2264 0.851472 22.4515C0.626428 22.6765 0.5 22.9817 0.5 23.3C0.5 23.6183 0.626428 23.9235 0.851472 24.1485C1.07652 24.3736 1.38174 24.5 1.7 24.5H23.3C23.6183 24.5 23.9235 24.3736 24.1485 24.1485C24.3736 23.9235 24.5 23.6183 24.5 23.3C24.5 22.9817 24.3736 22.6765 24.1485 22.4515C23.9235 22.2264 23.6183 22.1 23.3 22.1ZM13.7 22.1H11.3V17.3H13.7V22.1ZM19.7 22.1H16.1V16.1C16.1 15.7817 15.9736 15.4765 15.7485 15.2515C15.5235 15.0264 15.2183 14.9 14.9 14.9H10.1C9.78174 14.9 9.47652 15.0264 9.25147 15.2515C9.02643 15.4765 8.9 15.7817 8.9 16.1V22.1H5.3V2.9H19.7V22.1Z" fill="white"/>
</svg>
