<svg width="19" height="19" viewBox="0 0 19 19" fill="none" xmlns="http://www.w3.org/2000/svg">
<path d="M16.0791 13.2478H10.6842C10.3464 13.289 10.2787 13.3832 10.3668 13.6894C12.3396 16.2904 13.3245 17.1717 14.704 16.9461C16.5362 16.495 17.0951 15.8999 16.8196 13.9102C16.7309 13.54 16.6684 13.3395 16.0791 13.2478Z" fill="white"/>
<path d="M11.6891 17.1669C11.5833 16.6701 10.6842 14.6829 9.52055 14.5173C8.5156 14.6277 7.1933 16.4493 7.14041 17.1669C7.08752 17.8845 8.16872 19.1331 9.73212 18.9885C11.2853 18.9272 11.7949 17.6637 11.6891 17.1669Z" fill="white"/>
<path d="M16.3965 5.6303C16.3965 5.6303 17.7188 3.91914 16.132 2.37357C14.5452 0.827995 13.2758 2.37357 13.2758 2.37357L2.64453 13.1926C2.64453 13.1926 1.26932 14.8485 2.64453 16.2285C4.01975 17.6085 5.28913 17.0565 5.28913 17.0565L16.3965 5.6303Z" fill="white"/>
<path d="M16.5552 7.23107C15.7089 8.00385 12.1651 11.5918 12.1651 11.5918C12.1651 11.5918 17.2428 12.6406 18.4593 10.6534C19.6758 8.66624 18.4593 7.61746 18.4593 7.61746C17.9832 7.06547 17.4014 6.45828 16.5552 7.23107Z" fill="white"/>
<path d="M2.92085 5.75223H8.31584C8.65358 5.71096 8.72134 5.61682 8.63319 5.31064C6.66036 2.70957 5.6755 1.82835 4.29605 2.0539C2.4638 2.50496 1.90486 3.10013 2.18036 5.08984C2.26906 5.45998 2.33156 5.66055 2.92085 5.75223Z" fill="white"/>
<path d="M7.31088 1.8331C7.41666 2.32989 8.31584 4.31705 9.47945 4.48265C10.4844 4.37225 11.8067 2.55069 11.8596 1.8331C11.9125 1.11551 10.8313 -0.133107 9.26788 0.0115356C7.71468 0.0727634 7.20509 1.33631 7.31088 1.8331Z" fill="white"/>
<path d="M2.60354 13.3697C2.60354 13.3697 1.28121 15.0809 2.868 16.6264C4.45478 18.172 5.72417 16.6264 5.72417 16.6264L16.3555 5.80744C16.3555 5.80744 17.7307 4.15147 16.3555 2.77149C14.9803 1.39152 13.7109 1.94351 13.7109 1.94351L2.60354 13.3697Z" fill="white"/>
<path d="M2.44484 11.7689C3.29111 10.9961 6.83488 7.40821 6.83488 7.40821C6.83488 7.40821 1.75724 6.35943 0.540726 8.3466C-0.675791 10.3338 0.540726 11.3825 0.540726 11.3825C1.01675 11.9345 1.59857 12.5417 2.44484 11.7689Z" fill="white"/>
</svg>
