<svg width="20" height="20" viewBox="0 0 20 20" fill="none" xmlns="http://www.w3.org/2000/svg">
<path d="M10.25 0.75C5.00125 0.75 0.75 5.10878 0.75 10.4903C0.75 14.8004 3.46937 18.4408 7.24562 19.7314C7.72062 19.8166 7.89875 19.5244 7.89875 19.2687C7.89875 19.0374 7.88688 18.2703 7.88688 17.4546C5.5 17.9051 4.8825 16.858 4.6925 16.3101C4.58562 16.0301 4.1225 15.1656 3.71875 14.9343C3.38625 14.7517 2.91125 14.3012 3.70688 14.289C4.455 14.2768 4.98938 14.9952 5.1675 15.2874C6.0225 16.7606 7.38813 16.3466 7.93438 16.091C8.0175 15.4578 8.26687 15.0317 8.54 14.7882C6.42625 14.5447 4.2175 13.7046 4.2175 9.97893C4.2175 8.91967 4.58563 8.04304 5.19125 7.36122C5.09625 7.11772 4.76375 6.11934 5.28625 4.78005C5.28625 4.78005 6.08188 4.52436 7.89875 5.77843C8.65875 5.55927 9.46625 5.44969 10.2738 5.44969C11.0813 5.44969 11.8888 5.55927 12.6488 5.77843C14.4656 4.51219 15.2613 4.78005 15.2613 4.78005C15.7838 6.11934 15.4513 7.11772 15.3563 7.36122C15.9619 8.04304 16.33 8.90749 16.33 9.97893C16.33 13.7168 14.1094 14.5447 11.9956 14.7882C12.34 15.0926 12.6369 15.677 12.6369 16.5901C12.6369 17.8929 12.625 18.94 12.625 19.2687C12.625 19.5244 12.8031 19.8288 13.2781 19.7314C15.1643 19.0791 16.8034 17.8365 17.9645 16.1787C19.1255 14.5208 19.75 12.5313 19.75 10.4903C19.75 5.10878 15.4988 0.75 10.25 0.75Z" fill="white"/>
</svg>
