<svg width="25" height="25" viewBox="0 0 25 25" fill="none" xmlns="http://www.w3.org/2000/svg">
<path d="M2.9 24.5C2.24 24.5 1.6752 24.2065 1.2056 23.6195C0.736 23.0325 0.5008 22.326 0.5 21.5V3.5C0.5 2.675 0.7352 1.969 1.2056 1.382C1.676 0.795 2.2408 0.501 2.9 0.5H22.1C22.76 0.5 23.3252 0.794 23.7956 1.382C24.266 1.97 24.5008 2.676 24.5 3.5V21.5C24.5 22.325 24.2652 23.0315 23.7956 23.6195C23.326 24.2075 22.7608 24.501 22.1 24.5H2.9ZM12.5 14L2.9 6.5V21.5H22.1V6.5L12.5 14ZM12.5 11L22.1 3.5H2.9L12.5 11ZM2.9 6.5V3.5V21.5V6.5Z" fill="white"/>
</svg>
