<svg width="21" height="21" viewBox="0 0 21 21" fill="none" xmlns="http://www.w3.org/2000/svg">
<path d="M7.55184 5.91985C7.7348 5.92475 7.93764 5.93465 8.13063 6.36303C8.2586 6.64821 8.47418 7.17321 8.6498 7.60087C8.78645 7.93366 8.8989 8.20751 8.92704 8.26356C8.99134 8.39156 9.03092 8.53926 8.94683 8.71156C8.93691 8.73188 8.92755 8.75132 8.91853 8.77003C8.85107 8.91003 8.80306 9.00966 8.68963 9.13994C8.64298 9.19348 8.59439 9.25219 8.54598 9.31069C8.46084 9.41358 8.37625 9.5158 8.30374 9.58802C8.17514 9.71593 8.04153 9.85391 8.18992 10.1099C8.3384 10.3659 8.85781 11.2079 9.62457 11.8873C10.4489 12.6212 11.1657 12.9305 11.5281 13.0868C11.5984 13.1172 11.6554 13.1418 11.6972 13.1626C11.9545 13.2906 12.1078 13.2709 12.2562 13.0986C12.4047 12.9262 12.8993 12.3501 13.0725 12.0941C13.2407 11.8381 13.4138 11.8775 13.6513 11.9661C13.8887 12.0547 15.1551 12.6751 15.4123 12.8031C15.4631 12.8284 15.5107 12.8512 15.5548 12.8724C15.7337 12.9582 15.8554 13.0165 15.907 13.1035C15.9713 13.2118 15.9713 13.7239 15.7586 14.3246C15.541 14.9252 14.4922 15.5013 14.0173 15.5456C13.9723 15.5499 13.9276 15.5553 13.8815 15.5608C13.4463 15.6135 12.8938 15.6803 10.9255 14.9055C8.50014 13.9518 6.89912 11.5854 6.57543 11.107C6.54987 11.0692 6.53228 11.0432 6.52287 11.0306L6.51739 11.0233C6.37012 10.8262 5.46918 9.62067 5.46918 8.37685C5.46918 7.18682 6.0554 6.56726 6.32279 6.28467C6.33973 6.26676 6.3554 6.25021 6.36955 6.23494C6.60696 5.97895 6.88404 5.91495 7.05715 5.91495C7.23034 5.91495 7.40345 5.91495 7.55184 5.91985Z" fill="white"/>
<path fill-rule="evenodd" clip-rule="evenodd" d="M0.850074 20.0814C0.768257 20.3784 1.03875 20.6525 1.33679 20.5747L5.94413 19.3713C7.39849 20.159 9.03589 20.5775 10.703 20.5775H10.708C16.1939 20.5775 20.6659 16.1315 20.6659 10.6663C20.6659 8.01735 19.6319 5.52594 17.7522 3.65491C15.8724 1.78397 13.3742 0.75 10.7079 0.75C5.22197 0.75 0.750001 5.19605 0.750001 10.6614C0.749377 12.4 1.2083 14.1082 2.08068 15.6145L0.850074 20.0814ZM3.52681 16.0129C3.63363 15.6252 3.58027 15.2108 3.3787 14.8627C2.63855 13.5848 2.24947 12.1355 2.25 10.6614C2.25 6.03158 6.04327 2.25 10.7079 2.25C12.9778 2.25 15.0955 3.12698 16.694 4.71805C18.2907 6.30737 19.1659 8.41611 19.1659 10.6663C19.1659 15.2959 15.3727 19.0775 10.708 19.0775H10.703C9.28651 19.0775 7.89452 18.7218 6.65856 18.0523C6.32403 17.8711 5.93315 17.8238 5.56506 17.92L2.80265 18.6415L3.52681 16.0129Z" fill="white"/>
</svg>
