<svg width="21" height="21" viewBox="0 0 21 21" fill="none" xmlns="http://www.w3.org/2000/svg">
<path fill-rule="evenodd" clip-rule="evenodd" d="M2.75 0C1.23122 0 0 1.23122 0 2.75C0 4.26878 1.23122 5.5 2.75 5.5C4.26878 5.5 5.5 4.26878 5.5 2.75C5.5 1.23122 4.26878 0 2.75 0ZM1.5 2.75C1.5 2.05964 2.05964 1.5 2.75 1.5C3.44036 1.5 4 2.05964 4 2.75C4 3.44036 3.44036 4 2.75 4C2.05964 4 1.5 3.44036 1.5 2.75Z" fill="white"/>
<path fill-rule="evenodd" clip-rule="evenodd" d="M0 6.75C0 6.33579 0.335786 6 0.75 6H4.75C5.16421 6 5.5 6.33579 5.5 6.75V19.75C5.5 20.1642 5.16421 20.5 4.75 20.5H0.75C0.335786 20.5 0 20.1642 0 19.75V6.75ZM1.5 7.5V19H4V7.5H1.5Z" fill="white"/>
<path fill-rule="evenodd" clip-rule="evenodd" d="M7 6.75C7 6.33579 7.33579 6 7.75 6H11.75C12.1642 6 12.5 6.33579 12.5 6.75V7.18402L12.9353 6.99748C13.6836 6.67676 14.4839 6.47565 15.2933 6.40207C18.0682 6.1498 20.5 8.33038 20.5 11.1302V19.75C20.5 20.1642 20.1642 20.5 19.75 20.5H15.75C15.3358 20.5 15 20.1642 15 19.75V12.75C15 12.4185 14.8683 12.1005 14.6339 11.8661C14.3995 11.6317 14.0815 11.5 13.75 11.5C13.4185 11.5 13.1005 11.6317 12.8661 11.8661C12.6317 12.1005 12.5 12.4185 12.5 12.75V19.75C12.5 20.1642 12.1642 20.5 11.75 20.5H7.75C7.33579 20.5 7 20.1642 7 19.75V6.75ZM8.5 7.5V19H11V12.75C11 12.0207 11.2897 11.3212 11.8055 10.8055C12.3212 10.2897 13.0207 10 13.75 10C14.4793 10 15.1788 10.2897 15.6945 10.8055C16.2103 11.3212 16.5 12.0207 16.5 12.75V19H19V11.1302C19 9.22587 17.339 7.72227 15.4291 7.89591C14.775 7.95536 14.1284 8.11807 13.5262 8.3762L12.0454 9.01079C11.8137 9.1101 11.5476 9.08634 11.3371 8.94756C11.1267 8.80878 11 8.57354 11 8.32143V7.5H8.5Z" fill="white"/>
</svg>
