<svg width="32" height="32" viewBox="0 0 32 32" fill="none" xmlns="http://www.w3.org/2000/svg">
<path d="M0 30.2145C0 31.4048 1.12826 31.9603 1.86408 31.9603C2.73071 31.9603 3.46653 31.0081 3.46653 30.2145L3.6464 7.06263C3.6464 7.06263 3.6464 6.7452 3.85897 6.7452C4.07154 6.7452 4.30046 7.06263 4.30046 7.06263L12.7542 18.5096L12.7869 12.1215L5.39601 2.16243C4.186 1.01179 3.58099 0.595169 2.28922 0.595169C0.866633 0.595177 0.174417 1.59372 0 2.16243V30.2145Z" fill="white"/>
<path d="M32 30.2145C32 31.4048 30.8717 31.9603 30.1359 31.9603C29.2693 31.9603 28.5335 31.0081 28.5335 30.2145L28.3536 7.06263C28.3536 7.06263 28.3536 6.7452 28.141 6.7452C27.9285 6.7452 27.6995 7.06263 27.6995 7.06263L19.2458 18.5096L19.2131 12.1215L26.604 2.16243C27.814 1.01179 28.419 0.595169 29.7108 0.595169C31.1334 0.595177 31.8256 1.59372 32 2.16243V30.2145Z" fill="white"/>
<path d="M14.0788 30.4526C14.0788 30.4526 13.9316 32 15.8448 32C17.7579 32 17.7579 30.4526 17.7579 30.4526V1.23001C17.7579 1.23001 17.7579 0 15.8448 0C13.9316 0 14.0788 1.23001 14.0788 1.23001V30.4526Z" fill="white"/>
</svg>
